<svg xmlns="http://www.w3.org/2000/svg" viewBox="14 10 100 82" role="img" aria-labelledby="sqlTitle sqlDesc">
  <title id="sqlTitle">SQL logo</title>
  <desc id="sqlDesc">Blue cylindrical database icon with SQL lettering.</desc>
  <defs>
    <linearGradient id="sqlTopGradient" x1="0" x2="0" y1="0" y2="1">
      <stop offset="0%" stop-color="#51AEF6" />
      <stop offset="100%" stop-color="#3B8FDD" />
    </linearGradient>
    <linearGradient id="sqlUpperGradient" x1="0" x2="1" y1="0" y2="0">
      <stop offset="0%" stop-color="#3B79CB" />
      <stop offset="50%" stop-color="#3A7FD2" />
      <stop offset="100%" stop-color="#357AC8" />
    </linearGradient>
    <linearGradient id="sqlLowerGradient" x1="0" x2="1" y1="0" y2="0">
      <stop offset="0%" stop-color="#214D97" />
      <stop offset="50%" stop-color="#2555A4" />
      <stop offset="100%" stop-color="#21498F" />
    </linearGradient>
  </defs>

  <g>
    <ellipse cx="64" cy="26" rx="43" ry="11" fill="url(#sqlTopGradient)" />
    <path
      d="M21 26v26c0 6.1 19.3 11 43 11s43-4.9 43-11V26c0 6.1-19.3 11-43 11S21 32.1 21 26Z"
      fill="url(#sqlUpperGradient)"
    />
    <ellipse cx="64" cy="52" rx="43" ry="11" fill="#2E68BB" />
    <path
      d="M21 52v27c0 6.1 19.3 11 43 11s43-4.9 43-11V52c0 6.1-19.3 11-43 11S21 58.1 21 52Z"
      fill="url(#sqlLowerGradient)"
    />
    <ellipse cx="64" cy="79" rx="43" ry="11" fill="#214A90" />
    <ellipse cx="64" cy="79" rx="43" ry="11" fill="none" stroke="#2F66B5" stroke-width="1" opacity="0.55" />
    <ellipse cx="64" cy="26" rx="43" ry="11" fill="none" stroke="#6CC1FF" stroke-width="1" opacity="0.38" />

    <text
      x="64"
      y="66"
      text-anchor="middle"
      fill="#FFFFFF"
      font-family="Arial Black, Arial, Helvetica, sans-serif"
      font-size="30"
      font-weight="700"
      letter-spacing="1.5"
    >
      SQL
    </text>
  </g>
</svg>
