<svg width="800" height="800" viewBox="0 0 800 800" fill="none" xmlns="http://www.w3.org/2000/svg">
<rect width="800" height="800" fill="white"/>
<path d="M276.194 210.11C276.194 213.72 276.194 217.329 276.831 242.864C277.468 268.399 278.742 315.749 275.788 357.022C272.835 398.295 265.616 432.056 256.27 460.489C246.924 488.923 235.67 511.005 219.893 531.511C204.116 552.018 184.157 570.278 161.772 578.73C139.387 587.181 115.181 585.27 97.7213 573.457C80.2617 561.643 70.2821 539.985 73.3158 523.201C76.3496 506.418 92.6993 495.164 130.955 496.904C169.21 498.645 228.876 513.72 282.014 530.617C335.151 547.514 379.954 565.774 412.589 577.411C445.224 589.047 464.334 593.506 484.023 598.1" stroke="black" stroke-width="13" stroke-linecap="round"/>
<path d="M540.001 628.342C539.577 625.157 539.152 621.972 531.608 554.614C524.064 487.256 509.413 355.822 501.865 283.761C494.318 211.699 494.318 202.994 494.961 192.094" stroke="black" stroke-width="13" stroke-linecap="round"/>
<path d="M307.722 260.941C308.571 250.749 314.742 241.677 336.274 229.304C351.851 220.353 377.766 207.588 409.687 196.347C441.607 185.106 478.978 176.188 518.083 172.762C557.187 169.336 596.894 171.671 629.133 177.121C661.372 182.571 684.941 191.064 705.045 205.95C725.149 220.836 741.074 241.857 740.148 267.337C739.221 292.817 720.961 322.119 693.611 348.149C666.262 374.179 630.378 396.049 594.162 414.535C557.947 433.021 522.487 447.46 485.953 462.336" stroke="black" stroke-width="13" stroke-linecap="round"/>
</svg>
