<svg width="687" height="471" viewBox="0 0 687 471" fill="none" xmlns="http://www.w3.org/2000/svg">
<path d="M216.194 45.454C216.194 49.0636 216.194 52.6733 216.831 78.208C217.468 103.743 218.742 151.093 215.788 192.366C212.835 233.639 205.616 267.4 196.27 295.833C186.924 324.267 175.67 346.349 159.893 366.855C144.116 387.362 124.157 405.622 101.772 414.074C79.3868 422.525 55.1808 420.614 37.7213 408.801C20.2617 396.987 10.2821 375.329 13.3158 358.545C16.3496 341.762 32.6993 330.508 70.9546 332.248C109.21 333.989 168.876 349.064 222.014 365.961C275.151 382.858 319.954 401.118 352.589 412.755C385.224 424.391 404.334 428.85 424.023 433.444" stroke="white" stroke-width="13" stroke-linecap="round"/>
<path d="M480.001 463.686C479.577 460.501 479.152 457.316 471.608 389.958C464.063 322.6 449.412 191.166 441.865 119.105C434.318 47.0433 434.318 38.3377 434.961 27.4379" stroke="white" stroke-width="13" stroke-linecap="round"/>
<path d="M247.722 96.2853C248.571 86.0933 254.742 77.0209 276.274 64.6476C291.851 55.6969 317.766 42.9318 349.687 31.691C381.607 20.4502 418.978 11.5322 458.083 8.10593C497.187 4.67965 536.894 7.01531 569.133 12.4652C601.372 17.9151 624.941 26.4084 645.045 41.2942C665.149 56.1801 681.074 77.201 680.148 102.681C679.221 128.161 660.961 157.463 633.611 183.493C606.262 209.523 570.378 231.393 534.162 249.879C497.947 268.365 462.487 282.804 425.953 297.68" stroke="white" stroke-width="13" stroke-linecap="round"/>
</svg>
