<svg id="Group_5245" data-name="Group 5245" xmlns="http://www.w3.org/2000/svg" xmlns:xlink="http://www.w3.org/1999/xlink" width="110.652" height="30.254" viewBox="0 0 110.652 30.254">
  <defs>
    <clipPath id="clip-path">
      <rect id="Rectangle_2303" data-name="Rectangle 2303" width="110.652" height="30.254" fill="none"/>
    </clipPath>
  </defs>
  <g id="Group_5244" data-name="Group 5244" clip-path="url(#clip-path)">
    <path id="Path_13531" data-name="Path 13531" d="M370.571,24.168l9.418,13.448h-7.557l-5.639-8.053-5.639,8.053H353.6l9.418-13.448L353.6,10.72h7.556l5.639,8.053,5.639-8.053h7.557ZM317.61,10.72l11.377,26.9h-6.293l-3.129-7.4H308.833l-3.139,7.4H299.4l11.415-26.9Zm-.177,14.457-3.224-7.622-3.235,7.622Zm27.491,5.043a9.75,9.75,0,1,0,0-19.5H331.139v26.9h6.186v-7.4Zm-1.469-14.461a4.709,4.709,0,0,1,0,9.418h-6.129V15.758Z" transform="translate(-269.337 -9.644)"/>
    <path id="Path_13532" data-name="Path 13532" d="M150.548,21.4c2.229-1.39,3.811-3.611,4.976-6.985.327-1,.659-2.031.992-3.15.027-1.437-.01-3.2-.055-5.119L156.306,0,152.6.136l.152,6.013c.161,6.318.024,11.84-2.559,14.719a16.837,16.837,0,0,1-1.532,1.457,10.544,10.544,0,0,0,1.889-.923" transform="translate(-133.732)" fill="#27a8c7"/>
    <path id="Path_13533" data-name="Path 13533" d="M14.238,267.131a48.614,48.614,0,0,1-8.58.623,43.7,43.7,0,0,1-5.022-.529l.633,3.19c1.2-.084,2.094-.195,3.309-.356a38.126,38.126,0,0,0,10.476-3.091q-.4.086-.816.163" transform="translate(-0.571 -240.161)" fill="#27a8c7"/>
    <path id="Path_13534" data-name="Path 13534" d="M25.247,21.431l3.765.916A75.025,75.025,0,0,1,25.65,35.24c-3.292,8.2-6.872,11.33-20.564,11.33A42.1,42.1,0,0,1,0,46.023l.673-3.811a34.389,34.389,0,0,0,5.933.688q.7.022,1.365.023c7.578,0,11.731-2.25,14.107-9.132a85.249,85.249,0,0,0,3.168-12.359" transform="translate(0 -19.279)" fill="#fe5433"/>
  </g>
</svg>
